<?xml version="1.0" encoding="UTF-8"?>
<svg width="1600px" height="427px" viewBox="0 0 1600 427" version="1.1" xmlns="http://www.w3.org/2000/svg" xmlns:xlink="http://www.w3.org/1999/xlink">
    <!-- Generator: Sketch 46.2 (44496) - http://www.bohemiancoding.com/sketch -->
    <title>Asset/Illustration/About</title>
    <desc>Created with Sketch.</desc>
    <defs>
        <path d="M47.8730469,3.66748047 C45.7714844,7.31526693 43.8513997,11.3059896 42.112793,15.6396484 C40.5030888,19.652004 38.8533493,26.4104675 37.1635742,35.9150391 C30.8126628,35.9150391 24.8103841,35.9150391 19.1567383,35.9150391 C13.5030924,35.9150391 8.25716146,35.2062174 3.41894531,33.7885742 L0.780273438,40.168457 C2.71158854,41.7296549 8.26969401,43.2786458 17.4545898,44.8154297 C25.6923664,46.1937449 32.9904991,46.6006017 39.3489879,46.036 L39.3489871,46.035991 C40.6905097,45.9168706 41.8820252,45.130644 42.5192084,43.944107 C48.2830955,33.2108277 51.1650391,24.7485017 51.1650391,18.5571289 C51.1650391,12.1918014 57.4023034,10.7616178 55.3344727,0.696777344 C55.2956715,0.507918783 52.8085296,1.49815316 47.8730469,3.66748047 Z" id="path-1"></path>
        <path d="M18.4697266,4.21484375 C13.2967111,3.12120481 10.2336822,2.43553587 9.28063965,2.15783691 C8.47300186,1.92250621 6.44653259,1.47349929 3.20123183,0.810816165 L3.20122707,0.810839485 C2.24424062,0.615425002 1.31003508,1.23280106 1.1146206,2.18978751 C1.10558145,2.23405419 1.09824191,2.27865099 1.09261814,2.32347976 L0.954480762,3.42461541 C0.885977475,3.9706785 0.969003053,4.52506349 1.1944718,5.02710078 C2.69349807,8.36488978 4.96261783,10.3325814 8.00183105,10.9301758 C11.2798732,11.5747306 17.3407863,12.1771882 26.1845703,12.7375488 L18.4697266,4.21484375 Z" id="path-3"></path>
        <path d="M0,2.93310547 L11.472714,0 C12.175762,5.97770182 12.175762,11.9554036 11.472714,17.9331055 C7.824238,23.3110352 5.5,26 4.5,26 C3.5,26 2.40882086,23.3110352 1.22646257,17.9331055 C0.563439003,11.6189779 0.154618145,6.61897786 0,2.93310547 Z" id="path-5"></path>
        <path d="M40.6982422,5.47021484 C40.7714239,8.90312033 41.143006,12.6959263 41.8129883,16.8486328 C42.4829706,21.0013393 42.7158807,27.7337612 42.5117187,37.0458984 C31.6028786,39.7189102 23.7236469,41.3351212 18.8740234,41.8945313 C14.0244,42.4539413 7.76609922,42.4539413 0.0991210938,41.8945312 L0.0991210938,48.9326172 C8.01611328,50.6311849 16.1588542,51.4804687 24.5273437,51.4804687 C31.9493116,51.4804687 39.9586555,51.1750025 48.5553753,50.56407 L48.5553746,50.5640601 C50.4846337,50.4269558 52.0394341,48.9291057 52.2484024,47.0063029 C53.1596237,38.6217839 53.6152344,31.5311412 53.6152344,25.734375 C53.6152344,19.1898872 52.5222982,10.6900499 50.3364258,0.234863281 L40.6982422,5.47021484 Z" id="path-7"></path>
        <path d="M47,2 L57,0 L46.1826172,22.21875 L34,43 L3.5,65.5 L0.5,61 L27,35.5 C32,24.5 35.3333333,17.1666667 37,13.5 C38.6666667,9.83333333 42,6 47,2 Z" id="path-9"></path>
        <path d="M17,5.96627325 C16,4.65542442 14.8333333,3.83333333 13.5,3.5 C12.2925947,3.19814867 8.85194963,2.33105636 3.17806479,0.898723044 L3.17807029,0.898701265 C2.27528841,0.67080017 1.35868874,1.21789915 1.13078765,2.12068104 C1.11393536,2.18743779 1.10118832,2.2551642 1.09261814,2.32347976 L0.926379438,3.64861973 L0.926381035,3.64861993 C0.87577678,4.05200205 0.907688236,4.46146091 1.02017759,4.85213222 C1.93015127,8.01243679 3.92342541,9.89505938 7,10.5 C10.2780421,11.1445548 15.6113755,11.2879467 23,10.9301758 L17,5.96627325 Z" id="path-11"></path>
        <path d="M13.2602936,37.5712572 C15.0536805,41.3359016 16.7336378,45.1900051 17.5,48 C18.6234447,52.1192971 18.2901113,61.9526304 16.5,77.5 L51.5,76.5 C50.9481587,66.4861469 50.4481587,58.9861469 50,54 C49.0248313,43.1504189 48.2244503,31.9613236 44,23 C36.863401,7.86113701 34.3833888,1.07115179 36.5599635,2.63004434 C24.6920873,-0.0956570705 16.3387662,-0.0956570705 11.5,2.63004434 C6.66123384,5.35574575 2.8279005,8.81239764 -4.4408921e-13,13 C1.41513862,15.3585644 2.68425306,17.5085228 3.80734332,19.4498752 C5.28458022,24.6284669 3.64396388,29.7303422 6,33.5 C7.51024979,35.9163997 10.297778,37.4204575 13.2602936,37.5712572 Z" id="path-13"></path>
        <path d="M43.5,47 C40.1666667,47 35.3333333,47.5 29,48.5 C22.6666667,49.5 13.8333333,50 2.5,50 L0.0991210938,54.9326172 C7.99788411,56.3108724 16.1315104,57 24.5,57 C31.8805698,57 39.881987,56.4639747 48.5042516,55.3919242 L48.5042529,55.3919344 C50.5097598,55.1425794 52.0142326,53.4364737 52.0107155,51.4155275 C51.9866362,37.5792345 51.1497311,27.7740587 49.5,22 C44.5,4.5 38,-1 33.5,1 C29,3 38.2726509,18.4752836 40.5,25.5 C41.9848994,30.1831443 42.9848994,37.349811 43.5,47 Z" id="path-15"></path>
        <path d="M3.5,3.5 L11.5,0 C11.8333333,6.16666667 11.8678785,11.2330069 11.6036355,15.1990206 C10.492878,19.6897174 9.3533895,22.9990324 8.18516988,25.1269657 C7.01695027,27.254899 4.58770007,29.9438433 0.897419288,33.1937987 C1.18076672,28.8583672 1.43918438,25.4219453 1.67267226,22.8845329 C1.90616015,20.3471205 2.51526939,17.8856096 3.5,15.5 C4.5,11.8333333 4.5,7.83333333 3.5,3.5 Z" id="path-17"></path>
        <path d="M0.997504225,2.96386379 C2.12065332,1.84071469 3.96370572,2.83149471 6.52666143,5.93620385 C10.7169083,3.90652606 14.7997657,4.56694 17,2 C19,-0.333333333 22,-0.333333333 26,2 C26.6666667,5 26.6666667,7 26,8 C25,9.5 19.5,8.5 14.5,11.5 C12.505671,12.6965974 9.15904374,12.7795373 6.23691756,12.0661054 C4.39860026,12.1797493 -1.00249577,4.96386379 0.997504225,2.96386379 Z" id="path-19"></path>
        <path d="M2,9.5 C7.5,3 14,5.5 17,2 C19,-0.333333333 21.8333333,-0.333333333 25.5,2 C26.5,5 26.6666667,7 26,8 C25,9.5 19.5,8.5 14.5,11.5 C9.5,14.5 -3.5,16 2,9.5 Z" id="path-21"></path>
        <path d="M21.0718438,37.813642 C20.204946,35.7480906 19.8306417,32.5196525 20.0718438,31.313642 C20.2946032,30.199845 21.2616889,29.6070764 22.973101,29.5353362 C22.6129025,9.93195702 32.7057111,0.519699318 45,0.0279277634 C57.5,-0.472072237 74.4033635,5.63728732 72.3442188,26.798602 C72.2459831,27.8081459 72.1362288,28.7905754 72.0154155,29.7465592 C73.7787889,29.8023904 74.7736504,30.3961799 75,31.5279278 C75.2412021,32.7339382 74.8668978,35.9623763 74,38.0279278 C73.0866787,40.2040923 71.8470207,41.9632848 69.6238129,41.5528193 C66.1178165,53.3422753 60.2393876,58.9183936 53.9901336,61.1930941 C53.9503126,63.6682642 53.7899528,66.1434343 53.5090543,68.6186044 C59.2510914,69.2057328 65.3987894,70.2830599 71.9521484,71.8505859 C77,77 80.1666667,81 81.5,84 C82.5445748,86.3502934 83.9983259,89.7235274 85.8612532,94.119702 C87.618508,97.4678537 89.4174425,101.261286 91.2580566,105.5 C95.7526855,100.5 99.5,96 102.5,92 C104.319472,89.5740371 106.200249,86.657633 108.142332,83.2507875 C108.73827,80.105304 109.190826,77.6050415 109.5,75.75 C110,72.75 112.5,67.0591191 113,66.5591191 C113.5,66.0591191 114.5,68.0591191 114,69.5591191 C113.666667,70.5591191 113.5,71.3924525 113.5,72.0591191 C115.203992,67.3924525 116.389321,64.8924525 117.055988,64.5591191 C117.542074,64.316076 119.300086,62.6704743 121,63.0591191 C122.797231,63.4700132 124.013914,69.9599906 123.5,72.5295596 C122.873285,75.6631345 119.595361,80.5554745 113.666228,87.2065794 C111.593931,93.2056223 109.371855,98.1367625 107,102 C104.007139,106.874722 99.7236747,112.959818 94.1496078,120.255289 C92.8083959,122.010689 90.298096,122.346462 88.5426918,121.005255 C88.3386946,120.849392 88.1501763,120.674251 87.9797458,120.482257 C83.543711,115.484964 79.4535122,109.877414 75.7091494,103.659608 L75,104 L69.9402983,94.752959 C69.6367204,98.8837754 69.3232876,103.408565 69,108.327327 C67.9023437,125.027967 67.2864583,138.419834 67.1523438,148.50293 C66.9275439,148.530322 66.7040382,148.557346 66.4818268,148.584002 C66.1486016,159.631248 65.6546593,167.712134 65,172.82666 C64.3333333,178.034993 62.6666667,188.70166 60,204.82666 C60.3333333,217.493327 60.3333333,226.493327 60,231.82666 C59.6666667,237.159993 58.6666667,246.493327 57,259.82666 C56.6967723,260.90671 56.6213656,261.716472 56.6530995,262.255947 C56.6961155,262.987219 58.6182202,264.958754 58.7473839,266.968087 C58.8982363,269.31482 55.6059573,272.727369 53.5116728,272.727369 C51.4173884,272.727369 47.7523907,269.585942 47.7523907,266.968087 C47.7523907,265.209327 48.7995329,264.873802 48.7995329,262.779518 C48.7995329,262.091712 48.7148243,261.107426 48.5454072,259.82666 C46.9583656,248.03677 46.1250323,238.703437 46,231.82666 C45.8749677,224.949883 46.5416344,215.949883 48,204.82666 C45.1485395,190.857665 43.9818728,180.190998 44.5,172.82666 C44.7016163,169.961011 44.9509607,166.956031 45.2480331,163.811721 C43.2422444,166.599134 40.9616682,173.462011 37,182.82666 C35.3543479,186.716676 32.2573427,194.216676 27.7089844,205.32666 C28.375651,216.659993 27.9726562,225.82666 26.5,232.82666 C25.0273438,239.82666 24.1940104,248.159993 24,258.146112 L24,259.82666 C24,260.675401 23.8333333,261.842068 23.5,263.32666 C19.8333333,263.659993 16.6666667,264.32666 14,265.32666 C10,266.82666 1.5,269.82666 0,265.32666 C2.5,257.32666 10.5,258.82666 12,258.32666 C12.2487145,258.243755 12.8104672,257.693081 13.5169492,257.208301 C13.5143104,257.30498 14,222 14,204.82666 C16.0849983,187.275553 20.5806017,168.199129 27.4868101,147.597386 C27.325155,147.565242 27.162885,147.53278 27,147.5 C28.7455035,127.721079 29.7455035,113.721079 30,105.5 C30.0685991,103.284023 29.9733949,100.926687 29.7143875,98.4279913 L29,102.5 L28.051884,102.341981 C27.0605865,106.948078 25.9487538,112.273643 24.5,119 C22.5740175,127.942061 22.6954959,126.373083 21.5,132.5 C21.1277194,134.407938 20.8929681,136.188322 20.7957463,137.841153 C21.8314313,141.600511 22.4407673,144.278551 22.6237542,145.87527 C22.9366423,148.605489 22.1825847,154.171023 21.8728312,154.729833 C21.5630777,155.288643 20.1964009,153.800572 20.2570978,152.373199 C20.3177947,150.945825 19.5920965,156.793792 18.8480612,157.477131 C18.4863959,157.809292 17.3692985,159.676446 15.7960204,159.762258 C14.132675,159.852983 13.4436493,153.646619 13.250048,151.286791 C13.101317,149.473893 13.2045067,147.13616 13.559617,144.273591 C13.8918314,134.980334 14.3719591,126.722471 15,119.5 C15.5927875,112.682944 16.2155997,106.048098 17.1274975,100.52125 C17.6666667,95.5 18.5,90.5 19.5,85.5 C20.5,80.5 22,77 24,75 C30.9511985,71.2528877 37.3411003,69.0494966 43.1697051,68.3898268 C42.9281363,66.0655154 42.7218563,63.9236334 42.5508652,61.9641807 C35.4473773,59.6872051 28.6372696,50.8368121 25.2352765,41.3716241 C23.1449368,41.6347114 21.955611,39.9193882 21.0718438,37.813642 Z" id="path-23"></path>
        <mask id="mask-24" maskContentUnits="userSpaceOnUse" maskUnits="objectBoundingBox" x="0" y="0" width="123.618532" height="272.727369" fill="white">
            <use xlink:href="#path-23"></use>
        </mask>
        <path d="M26.4545455,38 L83,38 C93.4934102,38 102,29.4934102 102,19 L102,19 C102,8.50658975 93.4934102,-1.17092766e-14 83,-2.84217094e-14 L83,0 L19,0 L19,0 C8.50658975,1.92760819e-15 -1.28507213e-15,8.50658975 0,19 L0,19 L0,19 C1.02089279e-15,27.3362223 5.36859642,34.4185417 12.8369759,36.9781448 L11.5586853,44.6478884 C11.4972006,45.0167967 11.5757466,45.3953672 11.7789209,45.7093638 C12.228965,46.4048865 13.1576304,46.6038862 13.8531531,46.1538421 L26.4545455,38 Z" id="path-25"></path>
        <filter x="-2.0%" y="-4.3%" width="105.9%" height="112.9%" filterUnits="objectBoundingBox" id="filter-26">
            <feMorphology radius="1" operator="dilate" in="SourceAlpha" result="shadowSpreadOuter1"></feMorphology>
            <feOffset dx="2" dy="2" in="shadowSpreadOuter1" result="shadowOffsetOuter1"></feOffset>
            <feComposite in="shadowOffsetOuter1" in2="SourceAlpha" operator="out" result="shadowOffsetOuter1"></feComposite>
            <feColorMatrix values="0 0 0 0 0.888953091   0 0 0 0 0.910928629   0 0 0 0 0.998830782  0 0 0 1 0" type="matrix" in="shadowOffsetOuter1"></feColorMatrix>
        </filter>
        <circle id="path-27" cx="33" cy="33" r="33"></circle>
    </defs>
    <g id="Symbols" stroke="none" stroke-width="1" fill="none" fill-rule="evenodd">
        <g id="Component/About/Hero" transform="translate(0.000000, -556.000000)">
            <g id="Asset/Illustration/About" transform="translate(0.000000, 556.000000)">
                <g id="Group-18">
                    <rect id="Rectangle-150" fill="#F5F8FF" x="0" y="352" width="1600" height="6"></rect>
                    <g id="Group" transform="translate(1088.000000, 161.000000)">
                        <path d="M103,227.210526 L68,218 C68,217.602716 68.0511851,217.207087 68.1522912,216.822884 C68.8023943,214.352492 71.3320553,212.876857 73.8024472,213.52696 L103,221.210526 L103,227.210526 Z" id="Combined-Shape" fill="#6C95D6"></path>
                        <path d="M73.8024472,230.47304 L138.197553,213.52696 C140.667945,212.876857 143.197606,214.352492 143.847709,216.822884 C143.948815,217.207087 144,217.602716 144,218 L68,238 C68,234.464313 70.3831744,231.372849 73.8024472,230.47304 Z" id="Mask" fill="#6C95D6"></path>
                        <path d="M108,222.526316 L138.197553,230.47304 C141.616826,231.372849 144,234.464313 144,238 L106,228 L68,238 C68,234.464313 70.3831744,231.372849 73.8024472,230.47304 L108,221.473684 L108,222.526316 Z" id="Combined-Shape" fill="#87B1F4"></path>
                        <path d="M30,135 L74,135 C76.209139,135 78,136.790861 78,139 C78,141.209139 76.209139,143 74,143 L30,143 C27.790861,143 26,141.209139 26,139 C26,136.790861 27.790861,135 30,135 Z" id="Rectangle-25" fill="#87B1F4"></path>
                        <path d="M99,194 L113,194 L113,223 C111.14091,224 108.807576,224.5 106,224.5 C103.192424,224.5 100.85909,224 99,223 L99,194 Z" id="Rectangle-28" fill="#5980BE"></path>
                        <rect id="Rectangle-28" fill="#6C95D6" x="97" y="187" width="18" height="17"></rect>
                        <path d="M102,68 L146,68 C159.807119,68 171,79.1928813 171,93 L171,153 C171,166.807119 159.807119,178 146,178 L102,178 C88.1928813,178 77,166.807119 77,153 L77,93 C77,79.1928813 88.1928813,68 102,68 Z" id="Rectangle-26" fill="#93B7F1"></path>
                        <path d="M95,68 L139,68 C152.807119,68 164,79.1928813 164,93 L164,153 C164,166.807119 152.807119,178 139,178 L95,178 C81.1928813,178 70,166.807119 70,153 L70,93 C70,79.1928813 81.1928813,68 95,68 Z" id="Rectangle-26" fill="#BBD3FA"></path>
                        <path d="M38,173 L158,173 C161.865993,173 165,176.134007 165,180 C165,183.865993 161.865993,187 158,187 L38,187 C34.1340068,187 31,183.865993 31,180 C31,176.134007 34.1340068,173 38,173 Z" id="Rectangle-27" fill="#87B1F4"></path>
                        <path d="M116,173 L158,173 C161.865993,173 165,176.134007 165,180 C165,183.865993 161.865993,187 158,187 L116,187 C112.134007,187 109,183.865993 109,180 C109,176.134007 112.134007,173 116,173 Z" id="Rectangle-27" fill="#6C95D6"></path>
                        <path d="M35,135 L79,135 C81.209139,135 83,136.790861 83,139 C83,141.209139 81.209139,143 79,143 L35,143 C32.790861,143 31,141.209139 31,139 C31,136.790861 32.790861,135 35,135 Z" id="Rectangle-25" fill="#6C95D6"></path>
                        <g id="Rectangle-21-+-Path-8-Mask" transform="translate(42.000000, 82.000000)">
                            <mask id="mask-2" fill="white">
                                <use xlink:href="#path-1"></use>
                            </mask>
                            <use id="Mask" fill="#DD8F6D" xlink:href="#path-1"></use>
                            <path d="M38,18 L52,18 L51.4350586,22.3815918 C49.155599,21.4605306 47.0105794,20.9022624 45,20.7067871 C42.9894206,20.5113118 40.6560872,20.6090495 38,21 L38,18 Z" id="Rectangle-21" fill="#B65E4C" opacity="0.33667346" mask="url(#mask-2)"></path>
                        </g>
                        <path d="M89.1191406,79.1352539 L104,80 L93.1826172,102.21875 L82.269043,101.244629 C83.1196289,97.6079102 84.1778971,93.65625 85.4438477,89.3896484 C86.7097982,85.1230469 87.9348958,81.7049154 89.1191406,79.1352539 Z" id="Rectangle-22" fill="#DE3E3E"></path>
                        <path d="M89.2412109,78.8505859 C97.4989258,76.0527344 105.211549,74.8421224 112.37908,75.21875 C119.546611,75.5953776 128.00863,78.0115559 137.765137,82.4672852 C137.654134,89.4337565 137.049805,101.267312 135.952148,117.967952 C134.854492,134.668592 133.254557,147.180251 131.152344,155.50293 L91.5283203,154.151367 C92.4841103,139.686899 93.0892535,128.344125 93.34375,120.123047 C93.5982465,111.901968 92.2307335,98.1444813 89.2412109,78.8505859 Z" id="Path-6" fill="#F65B5B"></path>
                        <path d="M81.9562988,121.8479 C84.8674316,123.273356 86.6218669,124.12793 87.2196045,124.411621 C87.8173421,124.695312 88.5979004,125.404378 89.5612793,126.538818 L92,128 L81.307373,126.27124 L81.9562988,121.8479 Z" id="Rectangle-23" fill="#B65E4C"></path>
                        <polygon id="Path-7" fill="#D04444" points="126.535156 85.8466797 128.042969 107.505859 129.550781 106.932617"></polygon>
                        <path d="M57.1707057,99.7937579 C57.5825421,98.6598667 58.6937812,97.9095177 60,98.0087956 C61.3062188,98.1080735 62.4174579,99.0273398 62.8292943,100.223833 L65,100.388816 C66.6568542,100.514743 68,101.959974 68,103.616828 L68,105.616828 L52,104.400763 L52,102.400763 C52,100.743909 53.3431458,99.5028479 55,99.6287755 L57.1707057,99.7937579 Z M60,102.008796 C60.5522847,102.050772 61,101.637084 61,101.0848 C61,100.532515 60.5522847,100.050772 60,100.008796 C59.4477153,99.9668198 59,100.380507 59,100.932792 C59,101.485076 59.4477153,101.96682 60,102.008796 Z" id="Combined-Shape" fill="#C8CCE7"></path>
                        <path d="M43.1424941,101.153035 L81.1424941,103.867321 C82.1891049,103.942079 83,104.812961 83,105.862238 L83,153.852047 C83,154.956617 82.1045695,155.852047 81,155.852047 C80.9524567,155.852047 80.9049284,155.850352 80.8575059,155.846965 L42.8575059,153.132679 C41.8108951,153.057921 41,152.187039 41,151.137762 L41,103.147953 C41,102.043383 41.8954305,101.147953 43,101.147953 C43.0475433,101.147953 43.0950716,101.149648 43.1424941,101.153035 Z" id="Rectangle-15" fill="#FCCC99"></path>
                        <g id="Path-10-+-Path-10-+-Path-10-+-Path-10-Mask" transform="translate(73.000000, 122.000000)">
                            <mask id="mask-4" fill="white">
                                <use xlink:href="#path-3"></use>
                            </mask>
                            <use id="Mask" fill="#DD8F6D" xlink:href="#path-3"></use>
                            <path d="M-0.328234546,0.74701229 C3.71867496,2.60514087 5.86769938,3.65753686 6.1188387,3.90420028 C6.36997803,4.15086369 4.04126611,3.24328377 -0.867297046,1.18146053 L-0.328234546,0.74701229 Z" id="Path-10" fill="#B65E4C" mask="url(#mask-4)" transform="translate(2.634939, 2.345373) rotate(-6.000000) translate(-2.634939, -2.345373) "></path>
                            <path d="M-0.770147921,2.16442443 C3.31595753,4.32990067 5.48457991,5.53597049 5.73571924,5.78263391 C5.98685856,6.02929732 3.64884327,4.98610998 -1.27832663,2.65307189 L-0.770147921,2.16442443 Z" id="Path-10" fill="#B65E4C" mask="url(#mask-4)" transform="translate(2.237831, 3.991218) rotate(-14.000000) translate(-2.237831, -3.991218) "></path>
                            <path d="M0.380302377,4.17870668 C3.70432278,6.43705324 5.49190264,7.68955823 5.74304196,7.93622164 C5.99418128,8.18288505 4.06799358,7.1203869 -0.0355211597,4.7487272 L0.380302377,4.17870668 Z" id="Path-10" fill="#B65E4C" mask="url(#mask-4)" transform="translate(2.864623, 6.074892) rotate(-22.000000) translate(-2.864623, -6.074892) "></path>
                            <path d="M0.946601657,6.06841083 C4.54198165,8.51126973 6.46524131,9.85603088 6.71638063,10.1026943 C6.96751995,10.3493577 4.90565245,9.19460339 0.530778121,6.63843136 L0.946601657,6.06841083 Z" id="Path-10" fill="#B65E4C" mask="url(#mask-4)" transform="translate(3.633805, 8.101833) rotate(-22.000000) translate(-3.633805, -8.101833) "></path>
                        </g>
                        <g id="Rectangle-20" transform="translate(106.000000, 58.000000)">
                            <mask id="mask-6" fill="white">
                                <use xlink:href="#path-5"></use>
                            </mask>
                            <use id="Mask" fill="#D17D58" xlink:href="#path-5"></use>
                            <path d="M-6,1 L13,1 L13,8.3125 C10.3876953,9.76236979 7.50016276,10.5488281 4.33740234,10.671875 C1.17464193,10.7949219 -2.27115885,10.3738607 -6,9.40869141 L-6,1 Z" fill="#B65E4C" mask="url(#mask-6)"></path>
                        </g>
                        <g id="Group-12" transform="translate(81.000000, 0.000000)">
                            <path d="M19.4745338,66.9169454 C33.440948,67.7936524 48.8638805,62.1162319 55.3442188,31.2706742 C59.4623453,11.6689342 43.3485419,4.94918751 30.377809,2.29959477 C17.4070761,-0.349997969 4,14.8993707 4,35.1987452 C4,43.9879426 5.5081196,66.0402383 19.4745338,66.9169454 Z" id="Oval-3" fill="#DD8F6D"></path>
                            <path d="M24,25.1608 C26.884413,24.3869333 29.0510796,24 30.5,24 C31.9489204,24 34.115587,24.3869333 37,25.1608 L36.6970215,33.5464026 C33.9857856,33.8488009 31.9201118,34 30.5,34 C29.0798882,34 27.0173882,33.8488009 24.3125,33.5464026 L24,25.1608 Z" id="Rectangle-14" fill="#D2F5FF" opacity="0.23754529"></path>
                            <path d="M3,25.1608 C5.88441298,24.3869333 8.05107964,24 9.5,24 C10.9489204,24 13.115587,24.3869333 16,25.1608 L15.6970215,33.5464026 C12.9857856,33.8488009 10.9201118,34 9.5,34 C8.07988824,34 6.01738824,33.8488009 3.3125,33.5464026 L3,25.1608 Z" id="Rectangle-14" fill="#D2F5FF" opacity="0.23754529"></path>
                            <path d="M39.3896168,23.4277777 L39.4929209,23.4277777 C39.533227,23.4277777 39.5724192,23.4325469 39.609964,23.4415519 C39.7655217,23.452929 39.8254446,23.4897383 39.8188597,23.5486041 C39.9254337,23.6402993 39.9929209,23.7761573 39.9929209,23.9277777 C39.9929209,23.9704255 39.9874645,24.0128981 39.9766845,24.054161 L39.6728837,25.2170349 C39.6356883,25.3594092 39.5376649,25.4781698 39.4049241,25.5416822 L38.2851535,26.0774575 L37.677085,31.8962938 C37.5783169,32.8416623 36.8024932,33.5923509 35.8157406,33.6973583 C33.9197967,33.8991194 32.206502,34 30.6758564,34 C29.1441771,34 27.4275062,33.8989831 25.5258439,33.6969494 C24.5389527,33.5920786 23.7629422,32.8413462 23.6641393,31.8958638 L23.010601,25.6419106 C22.8949563,24.535263 23.7386933,23.5484364 24.8951403,23.4377716 C24.9647212,23.4311131 29.2528087,23 30.9965235,23 C33.6314302,23 36.429128,23.1425926 39.3896168,23.4277777 Z M25.1045335,24.9380952 C25.0870515,24.9380952 25.0695804,24.938929 25.0521852,24.9405936 C24.7630735,24.9682598 24.5521392,25.2149665 24.5810504,25.4916284 L25.2345886,31.7455816 C25.2592891,31.9819491 25.4532972,32.1696394 25.6999971,32.1958547 C27.5466411,32.3920432 29.205914,32.4896825 30.6758564,32.4896825 C32.1447029,32.4896825 33.80049,32.3921881 35.6413014,32.196294 C35.8879926,32.1700418 36.0819414,31.9823748 36.1066356,31.7460116 L36.7602188,25.4916284 C36.7619583,25.4749823 36.7628297,25.4582635 36.7628297,25.4415343 C36.7628297,25.1634926 36.5272893,24.9380952 36.2367356,24.9380952 C34.7423917,24.6025535 32.9956544,24.4347826 30.9965235,24.4347826 C29.3305811,24.4347826 27.3665844,24.6025535 25.1045335,24.9380952 Z" id="Combined-Shape" fill="#223464" fill-rule="nonzero"></path>
                            <path d="M0.610383177,23.4277777 C3.57087201,23.1425926 6.36856979,23 9.00347652,23 C10.7471913,23 15.0352788,23.4311131 15.1048597,23.4377716 C16.2613067,23.5484364 17.1050437,24.535263 16.989399,25.6419106 L16.3358607,31.8958638 C16.2370578,32.8413462 15.4610473,33.5920786 14.4741561,33.6969494 C12.5724938,33.8989831 10.8558229,34 9.32414358,34 C7.793498,34 6.08020328,33.8991194 4.18425944,33.6973583 C3.19750681,33.5923509 2.42168307,32.8416623 2.32291503,31.8962938 L1.7148465,26.0774575 L0.595075921,25.5416822 C0.462335085,25.4781698 0.364311651,25.3594092 0.327116343,25.2170349 L0.0233154722,24.054161 C0.012535534,24.0128981 0.00707911952,23.9704255 0.00707911952,23.9277777 C0.00707911952,23.7761573 0.0745662818,23.6402993 0.181140331,23.5486041 C0.174555357,23.4897383 0.234478271,23.452929 0.390035975,23.4415519 C0.427580753,23.4325469 0.46677298,23.4277777 0.50707912,23.4277777 L0.610383177,23.4277777 Z M14.8954665,24.9380952 C12.6334156,24.6025535 10.6694189,24.4347826 9.00347652,24.4347826 C7.00434565,24.4347826 5.25760826,24.6025535 3.76326436,24.9380952 C3.47271065,24.9380952 3.23717033,25.1634926 3.23717033,25.4415343 C3.23717033,25.4582635 3.23804171,25.4749823 3.23978123,25.4916284 L3.89336442,31.7460116 C3.91805864,31.9823748 4.11200741,32.1700418 4.35869862,32.196294 C6.19951004,32.3921881 7.85529714,32.4896825 9.32414358,32.4896825 C10.794086,32.4896825 12.4533589,32.3920432 14.3000029,32.1958547 C14.5467028,32.1696394 14.7407109,31.9819491 14.7654114,31.7455816 L15.4189496,25.4916284 C15.4478608,25.2149665 15.2369265,24.9682598 14.9478148,24.9405936 C14.9304196,24.938929 14.9129485,24.9380952 14.8954665,24.9380952 Z" id="Combined-Shape" fill="#223464" fill-rule="nonzero"></path>
                            <path d="M24,25.375 C23,25.125 22,25 21,25 C20,25 19,25.125 18,25.375" id="Line" stroke="#223464" stroke-width="2" stroke-linecap="square"></path>
                            <path d="M17.4757229,25.5901328 C14.4919076,32.8675173 13,37.0636622 13,38.1785674 C13,40.6183897 19.357867,43.5168699 20.8418443,41.0770476 C21.4310334,40.1083559 22.1504186,34.8203072 23,25.2129015 C22.5015971,25.0517953 21.6988831,24.982123 20.5918579,25.0038845 C19.4848327,25.0256459 18.4461211,25.221062 17.4757229,25.5901328 Z" id="Path-3" fill="#B65E4C"></path>
                            <path d="M42.0706157,25.2313115 C42.4033666,26.8844769 41.2387384,32.3399227 38.5767312,41.5976489 L42.0706157,42.0935985 L45.0653738,30.6867573 C47.3946301,30.0254911 49.2247601,31.0173903 50.5557637,33.662455 C51.8867674,36.3075196 50.0566374,39.7791669 45.0653738,44.077397 C44.4882689,47.5179882 45.2062089,50.5243963 47.2191938,53.0966211 L47.219172,53.0966381 C47.5595527,53.5315821 48.1880776,53.6082408 48.6230216,53.2678601 C48.7403015,53.1760786 48.8356017,53.0592619 48.9019629,52.9259405 C53.2421564,44.2063735 55.5985659,37.1924857 55.9711914,31.8842773 C56.5581055,23.5234375 57.0444064,13.8244702 45.5645002,6.88117557 C38.5767312,2.4921875 34.770336,2.57111651 27.7841797,1.31933594 C20.7980234,0.0675553651 17.1142979,-0.0621190973 12.6221607,4.89737709 C8.13002345,9.85687328 13.6204134,13.8244702 21.1073087,13.8244702 C26.0985723,13.8244702 31.9217131,13.3285206 38.5767312,12.3366214 C36.0537493,14.5552103 35.554623,17.0349584 37.0793521,19.7758657 C37.9817827,21.3981069 41.5714893,22.7515634 42.0706157,25.2313115 Z" id="Path-2" fill="#223464"></path>
                        </g>
                        <path d="M113,135 L157,135 C159.209139,135 161,136.790861 161,139 C161,141.209139 159.209139,143 157,143 L113,143 C110.790861,143 109,141.209139 109,139 C109,136.790861 110.790861,135 113,135 Z" id="Rectangle-25" fill="#87B1F4"></path>
                        <path d="M118,135 L166,135 C168.209139,135 170,136.790861 170,139 C170,141.209139 168.209139,143 166,143 L118,143 C115.790861,143 114,141.209139 114,139 C114,136.790861 115.790861,135 118,135 Z" id="Rectangle-25" fill="#6C95D6"></path>
                        <g id="Rectangle-21-+-Path-8-Mask" transform="translate(87.000000, 84.000000)">
                            <mask id="mask-8" fill="white">
                                <use xlink:href="#path-7"></use>
                            </mask>
                            <use id="Mask" fill="#DD8F6D" xlink:href="#path-7"></use>
                            <path d="M41,22 L55,22 L54.4350586,26.3815918 C52.155599,25.4605306 50.0105794,24.9022624 48,24.7067871 C45.9894206,24.5113118 43.6560872,24.6090495 41,25 L41,22 Z" id="Rectangle-21" fill="#B65E4C" opacity="0.33667346" mask="url(#mask-8)"></path>
                            <polygon id="Path-8" fill="#B65E4C" mask="url(#mask-8)" points="40.5551758 37.4799805 48.918457 35.9711914 37.925293 35.9711914"></polygon>
                        </g>
                        <path d="M127.028809,89.1787109 L137.76123,82.5074463 C138.848112,86.4749611 139.590463,89.9015155 139.988281,92.7871094 C140.3861,95.6727033 140.816927,100.62827 141.280762,107.653809 L129.285645,106.950684 L127.028809,89.1787109 Z" id="Rectangle-19" fill="#F65B5B"></path>
                        <path d="M25.5189912,241.083333 C25.1729971,245.694444 24.6666667,248.5 24,249.5 C23,251 19,250 15,250.5 C11,251 3.5,254 1,252.5 C0.5,243 12.0189912,243.666667 16,241.083333 C17.3974977,240.176477 17.5374368,239.621266 19.5,239.5 C20.6763773,239.427312 22.6827077,239.95509 25.5189912,241.083333 Z" id="Path-23" fill="#C67766"></path>
                        <path d="M121.453125,155.233887 C117.86849,163.130697 113.863932,168.296224 109.439453,170.730469 C102.802734,174.381836 85.0615234,172.816406 76.9155273,172.86084 C71.4848633,172.890462 62.6663411,172.890462 50.4599609,172.86084 C49.1953125,183.354329 47.7845052,190.383464 46.2275391,193.948242 C44.6705729,197.513021 37.6206055,214.317871 25.0776367,244.362793 L16.5336914,240.920898 L34.2944336,162.966309 C40.3455404,160.42334 48.0410156,158.498861 57.3808594,157.192871 C66.7207031,155.886882 78.1634115,154.880371 91.7089844,154.17334 L121.453125,155.233887 Z" id="Path-5" fill="#14275C"></path>
                        <path d="M78.5,246.5 C78.5,251.166667 78.1666667,254 77.5,255 C76.5,256.5 72,255 68,255.5 C64,256 56.5,258 54,256.5 C53.5,247 63,251 67.5,248.5 C70.5,246.833333 74.1666667,246.166667 78.5,246.5 Z" id="Path-23" fill="#C67766"></path>
                        <path d="M131.196289,155.146484 C129.782878,163.101562 126.863932,168.296224 122.439453,170.730469 C115.802734,174.381836 98.6088867,173.643066 90.4628906,173.6875 C85.0322266,173.717122 80.8253581,173.717122 77.8422852,173.6875 C79.3014718,183.962618 80.0415435,190.609265 80.0625,193.627441 C80.0834565,196.645618 79.516562,214.940051 78.3618164,248.510742 L67.6010742,248.510742 L59.2768555,167.428711 C65.4776573,163.824076 71.6661339,161.188333 77.8422852,159.521484 C84.0184364,157.854635 92.0649859,156.209778 101.981934,154.586914 L131.196289,155.146484 Z" id="Path-5" fill="#223464"></path>
                    </g>
                    <g id="Group" transform="translate(220.000000, 272.500000) scale(-1, 1) translate(-220.000000, -272.500000) translate(163.000000, 139.000000)">
                        <path d="M21.8333333,142 C20.2777778,142.333333 17,143 12,144 C4.5,145.5 3,145 1.5,146 C2.22044605e-16,147 1,148 2,148 C3,148 11.8333333,148 14.8333333,148 C17.8333333,148 23.3333333,146.5 24.3333333,146.5 C25,146.5 25.1666667,145 24.8333333,142 L21.8333333,142 Z" id="Path-16" fill="#E9836E"></path>
                        <path d="M21.8333333,142 C21.8333333,141.666667 19.8888889,142.166667 16,143.5 C10.1666667,145.5 4,145.5 3.5,146.5 C3,147.5 3,148 4,148 C5,148 11.8333333,148 14.8333333,148 C17.8333333,148 23.3333333,146.5 24.3333333,146.5 C25,146.5 25.1666667,145 24.8333333,142 L21.8333333,142 Z" id="Path-16" fill="#FFB595"></path>
                        <path d="M24.5,144 C16.8333333,145 13.3333333,146.166667 14,147.5 C15,149.5 23.5,147.786371 24.5,146.286371 C25.1666667,145.286371 25.5,144.524248 25.5,144 L24.5,144 Z" id="Path-18" fill="#E77F6A"></path>
                        <path d="M23.3681368,143 C20.5439544,144.375 18.4212421,145.375 17,146 C14.8681368,146.9375 13.8681368,148 16.3681368,148 C18.8681368,148 21.8681368,148.5 23.3681368,147.5 C24.3681368,146.833333 25.2014701,145.666667 25.8681368,144 L23.3681368,143 Z" id="Path-17" fill="#FFB595"></path>
                        <g id="Rectangle-11" transform="translate(21.000000, 81.000000)">
                            <mask id="mask-10" fill="white">
                                <use xlink:href="#path-9"></use>
                            </mask>
                            <use id="Mask" fill="#615FBE" xlink:href="#path-9"></use>
                            <path d="M-5,57 C2,52.6666667 7.33333333,52.6666667 11,57 C14.6666667,61.3333333 15,66 12,71 L-5,71 L-5,57 Z" fill="#FFB595" mask="url(#mask-10)"></path>
                        </g>
                        <path d="M54.6489258,123 C57.5600586,124.425456 59.3144938,125.280029 59.9122314,125.563721 C60.5099691,125.847412 61.2905273,126.556478 62.2539063,127.690918 L63.5,129.5 L54,127.42334 L54.6489258,123 Z" id="Rectangle-23" fill="#E77F6A"></path>
                        <path d="M44.0534552,112.924342 L53.4580787,115.137195 C54.36151,115.349767 55,116.155926 55,117.084029 L55,135.058482 C55,135.919342 54.4491398,136.68362 53.6324555,136.955848 L52.1840216,137.438659 C51.2232624,137.758913 50.1747521,137.310474 49.7427029,136.39453 L40.6530424,117.12445 C39.9461975,115.625939 40.5879698,113.838144 42.0864812,113.131299 C42.699895,112.841953 43.3932532,112.769001 44.0534552,112.924342 L44.0534552,112.924342 Z" id="Rectangle-8" fill="#435CA0"></path>
                        <path d="M42.449719,113.56532 L51.449719,115.642243 C52.3571812,115.851657 53,116.659713 53,117.591025 L53,135.485898 C53,136.590467 52.1045695,137.485898 51,137.485898 C50.8486385,137.485898 50.6977663,137.468715 50.550281,137.43468 L41.550281,135.357757 C40.6428188,135.148343 40,134.340287 40,133.408975 L40,115.514102 C40,114.409533 40.8954305,113.514102 42,113.514102 C42.1513615,113.514102 42.3022337,113.531285 42.449719,113.56532 Z" id="Rectangle-8" fill="#14275C"></path>
                        <g id="Path-10-+-Path-10-+-Path-10-+-Path-10-Mask" transform="translate(47.000000, 123.000000)">
                            <mask id="mask-12" fill="white">
                                <use xlink:href="#path-11"></use>
                            </mask>
                            <use id="Mask" fill="#FFB595" xlink:href="#path-11"></use>
                            <path d="M-0.328234546,0.74701229 C3.71867496,2.60514087 5.86769938,3.65753686 6.1188387,3.90420028 C6.36997803,4.15086369 4.04126611,3.24328377 -0.867297046,1.18146053 L-0.328234546,0.74701229 Z" id="Path-10" fill="#E9836E" mask="url(#mask-12)" transform="translate(2.634939, 2.345373) rotate(-6.000000) translate(-2.634939, -2.345373) "></path>
                            <path d="M-0.770147921,2.16442443 C3.31595753,4.32990067 5.48457991,5.53597049 5.73571924,5.78263391 C5.98685856,6.02929732 3.64884327,4.98610998 -1.27832663,2.65307189 L-0.770147921,2.16442443 Z" id="Path-10" fill="#E9836E" mask="url(#mask-12)" transform="translate(2.237831, 3.991218) rotate(-14.000000) translate(-2.237831, -3.991218) "></path>
                            <path d="M0.380302377,4.17870668 C3.70432278,6.43705324 5.49190264,7.68955823 5.74304196,7.93622164 C5.99418128,8.18288505 4.06799358,7.1203869 -0.0355211597,4.7487272 L0.380302377,4.17870668 Z" id="Path-10" fill="#E9836E" mask="url(#mask-12)" transform="translate(2.864623, 6.074892) rotate(-22.000000) translate(-2.864623, -6.074892) "></path>
                            <path d="M0.946601657,6.06841083 C4.54198165,8.51126973 6.46524131,9.85603088 6.71638063,10.1026943 C6.96751995,10.3493577 4.90565245,9.19460339 0.530778121,6.63843136 L0.946601657,6.06841083 Z" id="Path-10" fill="#E9836E" mask="url(#mask-12)" transform="translate(3.633805, 8.101833) rotate(-22.000000) translate(-3.633805, -8.101833) "></path>
                        </g>
                        <g id="Combined-Shape" transform="translate(61.000000, 77.000000)">
                            <mask id="mask-14" fill="white">
                                <use xlink:href="#path-13"></use>
                            </mask>
                            <use fill="#8280F0" xlink:href="#path-13"></use>
                            <path d="M47.4922034,52.1413559 L47,29.5 L33,9 C37.3333333,22.3333333 39.8333333,30.5 40.5,33.5 C41.1666667,36.5 41.6666667,41.1666667 42,47.5 C40.3333333,47.8333333 38.5,48.1666667 36.5,48.5 C34.5,48.8333333 29.3333333,49.8333333 21,51.5 L44.7668161,52.396861 L33,53.5 L15,60 C31,60.6666667 41.6666667,60.6666667 47,60 C52.3333333,59.3333333 54.1666667,58.1666667 52.5,56.5 L49,52 L47.4922034,52.1413559 Z" fill="#615FBE" opacity="0.704200634" mask="url(#mask-14)"></path>
                        </g>
                        <g id="Rectangle-21-+-Path-8-Mask" transform="translate(61.000000, 79.000000)">
                            <mask id="mask-16" fill="white">
                                <use xlink:href="#path-15"></use>
                            </mask>
                            <use id="Mask" fill="#8280F0" xlink:href="#path-15"></use>
                            <path d="M-2,47 L14,47 C14.3333333,49.804579 14.5,51.9712457 14.5,53.5 C14.5,55.0287543 14.3333333,57.8620877 14,62 L-2,62 L-2,47 Z" id="Rectangle-9" fill="#FFB595" mask="url(#mask-16)"></path>
                            <polygon id="Path-8" fill="#6A68CC" mask="url(#mask-16)" points="37.5 46.75 47.5 47.5 40 44.5"></polygon>
                        </g>
                        <g id="Rectangle-20" transform="translate(72.675752, 82.027225) rotate(-19.000000) translate(-72.675752, -82.027225) translate(66.675752, 65.027225)">
                            <mask id="mask-18" fill="white">
                                <use xlink:href="#path-17"></use>
                            </mask>
                            <use id="Mask" fill="#F7A07A" xlink:href="#path-17"></use>
                            <path d="M-6,-2 L13,-2 L13,5.3125 C10.3876953,6.76236979 7.50016276,7.54882812 4.33740234,7.671875 C1.17464193,7.79492188 -2.27115885,7.37386068 -6,6.40869141 L-6,-2 Z" fill="#E77F6A" mask="url(#mask-18)"></path>
                        </g>
                        <path d="M104.03156,35.6631316 C105.440971,27.4310316 104.152137,21.4488544 100.212113,18.099854 C97.0959336,15.4511164 92.7531749,15.449064 87.1838372,18.0936968 C86.0529716,31.9131315 86.960734,42.2971191 89.9071242,49.2456595 C92.8535145,56.1941998 97.5686725,59.0796584 104.052598,57.9020352 C102.075512,54.5751244 101.375885,50.4834071 101.953715,45.6268833 C102.750617,48.4634699 103.794876,50.240146 105.086493,50.9569078 C104.436841,47.0865725 104.072861,43.411865 103.994553,39.9327854 C103.960127,38.4032948 103.972463,36.9800768 104.03156,35.6631316 L104.03156,35.6631316 Z" id="Combined-Shape" fill="#14275C"></path>
                        <g id="Group-12" transform="translate(65.347474, 38.133050) rotate(-7.000000) translate(-65.347474, -38.133050) translate(38.347474, 3.133050)">
                            <path d="M17.5,69 C32.6051693,69.3810756 38.5,64.5 49.5,37 C56.6960573,19.0098566 46.755618,8.59918954 26.377809,6.29959477 C6,4 0.844441578,19.9189109 0.844441578,40.2182855 C0.844441578,49.0074828 2.39483072,68.6189244 17.5,69 Z" id="Oval-3" fill="#FFB595"></path>
                            <path d="M11.3952357,47.5915722 C13.4541531,49.155142 14.6309174,49.6423159 14.9255283,49.0530939 C15.2675735,48.3690037 15.6387528,48.3312971 16.4841539,43.619358 C16.8100243,41.8030822 16.5586887,40.2632962 15.7301471,39 C15.1576748,40.2026384 14.4259454,41.6217192 13.5349589,43.2572424 C13.2357852,43.8064153 12.4757054,44.7634863 11.2547198,46.1284552 L11.2546948,46.1284329 C10.8864725,46.5400774 10.9216731,47.1722844 11.3333176,47.5405067 C11.3532653,47.5583502 11.3739213,47.5753858 11.3952357,47.5915722 Z" id="Path-3" fill="#E9836E"></path>
                            <path d="M38,24 C41,26 41.5,30.1666667 39.5,36.5 L41.0653738,34.6867573 C43.3946301,34.0254911 45.2247601,35.0173903 46.5557637,37.662455 C47.8867674,40.3075196 46.0566374,43.7791669 41.0653738,48.077397 C41.0653738,48.077397 42.5,49.5 44,49 C45.5,48.5 49.5,46.077397 51,43.5 C52.5,40.922603 52.4130859,39.3608398 53,31 C53.5869141,22.6391602 51.5,13.5 44.5,9 C37.5,4.5 19.1172845,-1.31700614 11.1172845,1.68299386 C3.11728448,4.68299386 4.75305627,12.4879279 5.5,15.5 C5.78696993,16.6572145 8.14719728,20.0119277 13.2835217,20.9651981 C21.7812231,22.5423195 35.1952777,22.1301851 38,24 Z" id="Path-2" fill="#223464"></path>
                            <path d="M41.5,34.5 C40.8333333,34.8333333 40.1666667,36.1666667 39.5,38.5 C39.0997063,39.9010279 39.7608225,42.1375618 39,44.5 C38.6624769,45.5480466 37.1624769,47.0480466 34.5,49 C36.4665897,45.9777261 37.4665897,43.9777261 37.5,43 C37.579133,40.6842369 37.2959151,37.8163396 37.5,37 C38,35 41,33 41,29 C41,26.3333333 40.8333333,24.3333333 40.5,23 L46,30.5 L41.5,34.5 Z" id="Path-14" fill="#223464"></path>
                        </g>
                        <g id="Path-19" transform="translate(76.567770, 247.786799) rotate(-55.000000) translate(-76.567770, -247.786799) translate(63.067770, 241.286799)">
                            <mask id="mask-20" fill="white">
                                <use xlink:href="#path-19"></use>
                            </mask>
                            <use id="Mask" fill="#E56F79" xlink:href="#path-19"></use>
                            <polygon id="Rectangle-12" fill="#C6515B" mask="url(#mask-20)" points="5.4612549 4.11102298 7.69570626 3.81265369 7.2244198 8.36992727"></polygon>
                            <path d="M25.5,4 C24.5,4.82637026 20,5 17.5,6 C15,7 8.5,7.5 8.5,6 C8.5,5 12,3.33333333 19,1 C21.5373316,-0.332157381 23.3706649,-0.832157381 24.5,-0.5 C26.1940026,-0.00176392897 26.5,3.17362974 25.5,4 Z" fill="#FFB595" mask="url(#mask-20)"></path>
                        </g>
                        <path d="M100,153.5 L68,201 C71.3333333,206.333333 73.3333333,211.666667 74,217 C74.6666667,222.333333 76.6666667,228.333333 80,235 C80,236.666667 79.5,238.166667 78.5,239.5 C77.5,240.833333 76.3333333,241.833333 75,242.5 L53.5,201 C59.8333333,184.666667 64.5,173.666667 67.5,168 C70.5,162.333333 73.8333333,157.5 77.5,153.5 L100,153.5 Z" id="Path-5" fill="#14275C"></path>
                        <g id="Path-19" transform="translate(76.000000, 252.000000)">
                            <mask id="mask-22" fill="white">
                                <use xlink:href="#path-21"></use>
                            </mask>
                            <use id="Mask" fill="#E56F79" xlink:href="#path-21"></use>
                            <path d="M25.5,4 C24.5,4.82637026 20,5 17.5,6 C15,7 8.5,7.5 8.5,6 C8.5,5 12,3.33333333 19,1 C21.5373316,-0.332157381 23.3706649,-0.832157381 24.5,-0.5 C26.1940026,-0.00176392897 26.5,3.17362974 25.5,4 Z" fill="#FFB595" mask="url(#mask-22)"></path>
                        </g>
                        <path d="M112.5,153.5 C113.5,159.5 113.666667,165.333333 113,171 C112.333333,176.666667 108.166667,188.666667 100.5,207 C101.833333,214.666667 102.166667,222 101.5,229 C100.833333,236 100.833333,244.333333 101.5,254 L93,254 L87,207 L90,153.5 L112.5,153.5 Z" id="Path-5" fill="#223464"></path>
                    </g>
                    <g id="Group" transform="translate(757.000000, 154.000000)">
                        <g id="Rectangle-21-+-Path-8-Mask" transform="translate(13.000000, 75.000000)"></g>
                        <path d="M25.2352765,41.3716241 C28.6372696,50.8368121 35.4473773,59.6872051 42.5508652,61.9641807 C42.7218563,63.9236334 42.9281363,66.0655154 43.1697051,68.3898268 C37.3411003,69.0494966 30.9511985,71.2528877 24,75 C22,77 20.5,80.5 19.5,85.5 C18.5,90.5 17.6666667,95.5 17,100.5 L17.1274975,100.52125 C16.2155997,106.048098 15.5927875,112.682944 15,119.5 C14.3719591,126.722471 13.8918314,134.980334 13.559617,144.273591 C13.2045067,147.13616 13.101317,149.473893 13.250048,151.286791 C13.4436493,153.646619 14.132675,159.852983 15.7960204,159.762258 C17.3692985,159.676446 18.4863959,157.809292 18.8480612,157.477131 C19.5920965,156.793792 20.3177947,150.945825 20.2570978,152.373199 C20.1964009,153.800572 21.5630777,155.288643 21.8728312,154.729833 C22.1825847,154.171023 22.9366423,148.605489 22.6237542,145.87527 C22.4407673,144.278551 21.8314313,141.600511 20.7957463,137.841153 C20.8929681,136.188322 21.1277194,134.407938 21.5,132.5 C22.6954959,126.373083 22.5740175,127.942061 24.5,119 C25.9487538,112.273643 27.0605865,106.948078 28.051884,102.341981 L29,102.5 L29.7143875,98.4279913 C29.9733949,100.926687 30.0685991,103.284023 30,105.5 C29.7455035,113.721079 28.7455035,127.721079 27,147.5 C27.162885,147.53278 27.325155,147.565242 27.4868101,147.597386 C24.5139831,155.618522 22.1850464,163.02828 20.5,169.82666 C18.7732003,176.793496 16.439867,188.293496 13.5,204.32666 C13.8333333,216.10357 14,224.936903 14,230.82666 C14,236.716417 13.8333333,245.716417 13.5,257.82666 L13.9444444,257.82666 C12.9814815,258.048882 12.3333333,258.215549 12,258.32666 C10.5,258.82666 2.5,257.32666 0,265.32666 C1.5,269.82666 10,266.82666 14,265.32666 C16.6666667,264.32666 19.8333333,263.659993 23.5,263.32666 C23.8333333,261.842068 24,260.675401 24,259.82666 C24,259.327563 23.9423674,258.660897 23.8271023,257.82666 L24,257.82666 C24.1940104,248.159993 25.0273438,239.82666 26.5,232.82666 C27.9726562,225.82666 28.375651,216.659993 27.7089844,205.32666 C32.2573427,194.216676 35.3543479,186.716676 37,182.82666 C40.9616682,173.462011 43.2422444,166.599134 45.2480331,163.811721 C44.9509607,166.956031 44.7016163,169.961011 44.5,172.82666 C43.9818728,180.190998 45.1485395,190.857665 48,204.82666 C46.5416344,215.949883 45.8749677,224.949883 46,231.82666 C46.1250323,238.703437 46.9583656,248.03677 48.5,259.82666 L48.5454072,259.82666 C48.7148243,261.107426 48.7995329,262.091712 48.7995329,262.779518 C48.7995329,264.873802 47.7523907,265.209327 47.7523907,266.968087 C47.7523907,269.585942 51.4173884,272.727369 53.5116728,272.727369 C55.6059573,272.727369 58.8982363,269.31482 58.7473839,266.968087 C58.6182202,264.958754 56.6961155,262.987219 56.6530995,262.255947 C56.6213656,261.716472 56.6967723,260.90671 56.8793195,259.82666 L57,259.82666 C58.6666667,246.493327 59.6666667,237.159993 60,231.82666 C60.3333333,226.493327 60.3333333,217.493327 60,204.82666 C62.6666667,188.70166 64.3333333,178.034993 65,172.82666 C65.6546593,167.712134 66.1486016,159.631248 66.4818268,148.584002 C66.7040382,148.557346 66.9275439,148.530322 67.1523438,148.50293 C67.2864583,138.419834 67.9023437,125.027967 69,108.327327 C69.3232876,103.408565 69.6367204,98.8837754 69.9402983,94.752959 L75,104 L75.7091494,103.659608 C79.4535122,109.877414 83.543711,115.484964 87.9797458,120.482257 C88.1501763,120.674251 88.3386946,120.849392 88.5426918,121.005255 C90.298096,122.346462 92.8083959,122.010689 94.1496034,120.255285 L94.1496078,120.255289 C99.7236747,112.959818 104.007139,106.874722 107,102 C109.371855,98.1367625 111.593931,93.2056223 113.666228,87.2065794 C119.595361,80.5554745 122.873285,75.6631345 123.5,72.5295596 C124.013914,69.9599906 122.797231,63.4700132 121,63.0591191 C119.300086,62.6704743 117.542074,64.316076 117.055988,64.5591191 C116.389321,64.8924525 115.203992,67.3924525 113.5,72.0591191 C113.5,71.3924525 113.666667,70.5591191 114,69.5591191 C114.5,68.0591191 113.5,66.0591191 113,66.5591191 C112.5,67.0591191 110,72.75 109.5,75.75 C109.190826,77.6050415 108.73827,80.105304 108.142332,83.2507875 C106.200249,86.657633 104.319472,89.5740371 102.5,92 C99.5,96 95.7526855,100.5 91.2580566,105.5 C89.4174425,101.261286 87.618508,97.4678537 85.8612532,94.119702 C83.9983259,89.7235274 82.5445748,86.3502934 81.5,84 C80.1666667,81 77,77 72,72 L71.9314001,72.0328087 C71.9383246,71.9717805 71.9452401,71.9110402 71.9521484,71.8505859 C65.3987894,70.2830599 59.2510914,69.2057328 53.5090543,68.6186044 C53.7899528,66.1434343 53.9503126,63.6682642 53.9901336,61.1930941 C60.2393876,58.9183936 66.1178165,53.3422753 69.6238129,41.5528193 C71.8470207,41.9632848 73.0866787,40.2040923 74,38.0279278 C74.8668978,35.9623763 75.2412021,32.7339382 75,31.5279278 C74.7736504,30.3961799 73.7787889,29.8023904 72.0154155,29.7465592 C72.1362288,28.7905754 72.2459831,27.8081459 72.3442188,26.798602 C74.4033635,5.63728732 57.5,-0.472072237 45,0.0279277634 C32.7057111,0.519699318 22.6129025,9.93195702 22.973101,29.5353362 C21.2616889,29.6070764 20.2946032,30.199845 20.0718438,31.313642 C19.8306417,32.5196525 20.204946,35.7480906 21.0718438,37.813642 C21.955611,39.9193882 23.1449368,41.6347114 25.2352765,41.3716241 Z" id="Combined-Shape" fill="#F5F8FF"></path>
                        <use id="Combined-Shape" stroke="#C5CCE9" mask="url(#mask-24)" stroke-width="4" stroke-dasharray="6" xlink:href="#path-23"></use>
                        <g id="Rectangle-20" transform="translate(42.000000, 51.000000)"></g>
                        <g id="Rectangle-21-+-Path-8-Mask" transform="translate(63.000000, 63.000000)"></g>
                    </g>
                    <g id="Group-56" transform="translate(843.000000, 132.000000)">
                        <g id="Combined-Shape">
                            <use fill="black" fill-opacity="1" filter="url(#filter-26)" xlink:href="#path-25"></use>
                            <use fill="#FFFFFF" fill-rule="evenodd" xlink:href="#path-25"></use>
                            <path stroke="#E4E7F5" stroke-width="1" d="M26.6022026,38.5 L14.1247787,46.5736272 C13.1974151,47.173686 11.9591946,46.908353 11.3591358,45.9809895 C11.0882368,45.5623273 10.9835087,45.0575666 11.0654883,44.5656889 L12.2749052,37.3091877 C4.67490618,34.518585 -0.5,27.2536633 -0.5,19 C-0.5,8.23044738 8.23044738,-0.5 19,-0.5 L83,-0.5 C93.7695526,-0.5 102.5,8.23044738 102.5,19 C102.5,29.7695526 93.7695526,38.5 83,38.5 L26.6022026,38.5 Z"></path>
                        </g>
                        <text id="We’re-Hiring!" font-family="Averta-Semibold, Averta" font-size="12" font-weight="500" fill="#5D648E">
                            <tspan x="14" y="23">We’re Hiring!</tspan>
                        </text>
                    </g>
                    <rect id="Rectangle-33" fill="#FFAB7E" x="317" y="287" width="140" height="12"></rect>
                    <path d="M326.448954,197 L390.408189,197 C394.826467,197 398.408189,200.581722 398.408189,205 C398.408189,205.190173 398.401408,205.380286 398.387859,205.569976 L394.530716,259.569976 C394.231684,263.75642 390.748156,267 386.551046,267 L322.591811,267 C318.173533,267 314.591811,263.418278 314.591811,259 C314.591811,258.809827 314.598592,258.619714 314.612141,258.430024 L318.469284,204.430024 C318.768316,200.24358 322.251844,197 326.448954,197 Z" id="Rectangle-34" fill="#E6E9ED"></path>
                    <path d="M330.448954,197 L394.408189,197 C398.826467,197 402.408189,200.581722 402.408189,205 C402.408189,205.190173 402.401408,205.380286 402.387859,205.569976 L398.530716,259.569976 C398.231684,263.75642 394.748156,267 390.551046,267 L326.591811,267 C322.173533,267 318.591811,263.418278 318.591811,259 C318.591811,258.809827 318.598592,258.619714 318.612141,258.430024 L322.469284,204.430024 C322.768316,200.24358 326.251844,197 330.448954,197 Z" id="Rectangle-34" fill="#D6DCE2"></path>
                    <path d="M352,249 L370,249 L381.188638,281.705249 C381.903709,283.795457 380.78894,286.069585 378.698733,286.784656 C378.281951,286.927239 377.844479,287 377.403982,287 L341,287 C341,285.619288 342.119288,284.5 343.5,284.5 L356.248712,284.5 C357.905566,284.5 359.248712,283.156854 359.248712,281.5 C359.248712,281.278123 359.224097,281.056931 359.17532,280.840483 L352,249 Z M365.5,266.402707 C367.432997,266.625119 369,265.014559 369,262.80542 C369,260.596281 367.432997,258.625119 365.5,258.402707 C363.567003,258.180294 362,259.790854 362,261.999993 C362,264.209132 363.567003,266.180294 365.5,266.402707 Z" id="Combined-Shape" fill="#BCC6D1"></path>
                    <rect id="Rectangle-33" fill="#FCCC99" x="231" y="287" width="140" height="12"></rect>
                    <path d="M367,299 L375,299 L375,408 C375,410.209139 373.209139,412 371,412 C368.790861,412 367,410.209139 367,408 L367,299 Z" id="Rectangle-35" fill="#E6E9ED"></path>
                    <path d="M445,299 L453,299 L453,408 C453,410.209139 451.209139,412 449,412 C446.790861,412 445,410.209139 445,408 L445,299 Z" id="Rectangle-35" fill="#D6DCE2"></path>
                    <polygon id="Rectangle-36" fill="#C6CED6" points="445 299 453 299 453 319.5 445 332.5"></polygon>
                    <path d="M233,299 L241,299 L241,408 C241,410.209139 239.209139,412 237,412 C234.790861,412 233,410.209139 233,408 L233,299 Z" id="Rectangle-35" fill="#E6E9ED"></path>
                    <path d="M327,299 L335,299 L335,408 C335,410.209139 333.209139,412 331,412 C328.790861,412 327,410.209139 327,408 L327,299 Z" id="Rectangle-35" fill="#D6DCE2"></path>
                    <polygon id="Rectangle-36" fill="#C6CED6" points="327 299 335 299 335 325.5 327 325.5"></polygon>
                    <g id="Group-13" transform="translate(1024.000000, 61.000000)">
                        <g id="Oval-4">
                            <use fill="#FFFFFF" fill-rule="evenodd" xlink:href="#path-27"></use>
                            <circle stroke="#F5F8FF" stroke-width="4" cx="33" cy="33" r="35"></circle>
                        </g>
                        <path d="M33.5,10.5 C33.5,9.94771525 33.0522847,9.5 32.5,9.5 C31.9477153,9.5 31.5,9.94771525 31.5,10.5 L31.5,33.4961075 L41.8760162,41.7814373 C42.3075921,42.126054 42.9368206,42.0555597 43.2814373,41.6239838 C43.626054,41.1924079 43.5555597,40.5631794 43.1239838,40.2185627 L33.5,32.5337366 L33.5,10.5 Z" id="Line-3" fill="#EAEDF9" fill-rule="nonzero"></path>
                    </g>
                    <g id="Group-17" transform="translate(426.000000, 80.000000)">
                        <rect id="Rectangle-31" stroke="#EEF3FF" stroke-width="4" x="3" y="25" width="56" height="66"></rect>
                        <polygon id="Line-6" fill="#EEF3FF" fill-rule="nonzero" points="1.40384761 24.2005389 31.2005389 1.59615239 30.5961524 0.799461124 0.799461124 23.4038476"></polygon>
                        <polygon id="Line-6" fill="#EEF3FF" fill-rule="nonzero" points="60.7956818 23.0967975 60.2043182 23.9032025 30.2043182 1.9032025 30.7956818 1.0967975"></polygon>
                        <circle id="Oval-6" fill="#DBE0F4" cx="30.5" cy="1.5" r="1.5"></circle>
                        <path d="M17,73 L45,73 C45.5522847,73 46,73.4477153 46,74 C46,74.5522847 45.5522847,75 45,75 L17,75 C16.4477153,75 16,74.5522847 16,74 C16,73.4477153 16.4477153,73 17,73 Z" id="Rectangle-32" fill="#EEF3FF"></path>
                        <path d="M24,79 L38,79 C38.5522847,79 39,79.4477153 39,80 C39,80.5522847 38.5522847,81 38,81 L24,81 C23.4477153,81 23,80.5522847 23,80 C23,79.4477153 23.4477153,79 24,79 Z" id="Rectangle-32" fill="#EEF3FF"></path>
                        <path d="M44.7203838,43.2490699 C44.7203838,43.2490699 44.4462502,41.3191698 43.6074016,40.4693558 C42.5437635,39.3536323 41.3485412,39.3481496 40.8030155,39.2823575 C36.8829058,39 31.0054827,39 31.0054827,39 L30.9945173,39 C30.9945173,39 25.1170942,39 21.1969845,39.2823575 C20.6514588,39.3481496 19.4562365,39.3536323 18.3925984,40.4693558 C17.5537498,41.3191698 17.2796162,43.2490699 17.2796162,43.2490699 C17.2796162,43.2490699 17,45.513413 17,47.7804974 L17,49.9050323 C17,52.1721167 17.2796162,54.4364598 17.2796162,54.4364598 C17.2796162,54.4364598 17.5537498,56.3663599 18.3925984,57.2161739 C19.4589779,58.3318974 20.8570589,58.29626 21.4793421,58.4141375 C23.7190131,58.6279616 31,58.696495 31,58.696495 C31,58.696495 36.8829058,58.688271 40.8030155,58.4031721 C41.3512826,58.3373801 42.5437635,58.3318974 43.6074016,57.2161739 C44.4462502,56.3663599 44.7203838,54.4364598 44.7203838,54.4364598 C44.7203838,54.4364598 45,52.1693754 45,49.9050323 L45,47.7804974 C45,45.513413 44.7203838,43.2490699 44.7203838,43.2490699 Z M28.1078911,52.4791463 L28.1078911,44.6115136 L35.6739769,48.5590366 L28.1078911,52.4791463 Z" id="Shape" fill="#DBE0F4" fill-rule="nonzero"></path>
                    </g>
                    <g id="Group-16" transform="translate(1329.000000, 0.000000)">
                        <g id="Group-15" transform="translate(10.000000, 0.000000)">
                            <rect id="Rectangle-16" fill="#F5F8FF" x="0" y="0" width="140" height="272"></rect>
                            <rect id="Rectangle-16" fill="#FFFFFF" x="8" y="8" width="124" height="264"></rect>
                            <path d="M64.4393398,55.5606602 L109.837578,100.958898 C110.423364,101.544684 111.373112,101.544684 111.958898,100.958898 C112.544684,100.373112 112.544684,99.4233641 111.958898,98.8375777 L66.5606602,53.4393398 C65.9748737,52.8535534 65.0251263,52.8535534 64.4393398,53.4393398 C63.8535534,54.0251263 63.8535534,54.9748737 64.4393398,55.5606602 Z" id="Line-2" fill="#F5F8FF" fill-rule="nonzero"></path>
                            <path d="M21.4393398,101.56066 L116.046422,196.167742 C116.632208,196.753529 117.581956,196.753529 118.167742,196.167742 C118.753529,195.581956 118.753529,194.632208 118.167742,194.046422 L23.5606602,99.4393398 C22.9748737,98.8535534 22.0251263,98.8535534 21.4393398,99.4393398 C20.8535534,100.025126 20.8535534,100.974874 21.4393398,101.56066 Z" id="Line-2" fill="#F5F8FF" fill-rule="nonzero"></path>
                            <path d="M21.4393398,197.56066 L70.0037301,246.12505 C70.5895165,246.710837 71.539264,246.710837 72.1250504,246.12505 C72.7108369,245.539264 72.7108369,244.589517 72.1250504,244.00373 L23.5606602,195.43934 C22.9748737,194.853553 22.0251263,194.853553 21.4393398,195.43934 C20.8535534,196.025126 20.8535534,196.974874 21.4393398,197.56066 Z" id="Line-2" fill="#F5F8FF" fill-rule="nonzero"></path>
                        </g>
                        <rect id="Rectangle-30" fill="#EAEDF9" x="0" y="272" width="160" height="6"></rect>
                    </g>
                    <g id="Group-14" transform="translate(539.000000, 165.000000)">
                        <path d="M16.3988718,39.1671988 C13.6243856,35.1403849 12,30.2598902 12,25 C12,11.1928813 23.1928813,0 37,0 L37,184 C16.5654643,184 0,167.434536 0,147 C0,135.921087 4.86932087,125.979464 12.5845823,119.198513 C14.8013061,116.528865 15.909668,112.993456 15.909668,108.592285 C15.909668,104.542909 15.1476283,101.280271 13.623549,98.8043725 C9.48012122,93.6600545 7,87.1196589 7,80 C7,72.3365525 9.8734451,65.3442341 14.6016981,60.0416819 C17.5338994,55.8779825 19,52.0307552 19,48.5 C19,45.1481547 18.1329573,42.0372209 16.3988718,39.1671988 Z M57.6011282,39.1671988 C55.8670427,42.0372209 55,45.1481547 55,48.5 C55,52.0307552 56.4661006,55.8779825 59.3983019,60.0416819 C64.1265549,65.3442341 67,72.3365525 67,80 C67,87.1196589 64.5198788,93.6600545 60.376451,98.8043725 C58.8523717,101.280271 58.090332,104.542909 58.090332,108.592285 C58.090332,112.993456 59.1986939,116.528865 61.4154177,119.198513 C69.1306791,125.979464 74,135.921087 74,147 C74,167.434536 57.4345357,184 37,184 L37,0 C50.8071187,0 62,11.1928813 62,25 C62,30.2598902 60.3756144,35.1403849 57.6011282,39.1671988 Z" id="Combined-Shape" fill="#F5F8FF"></path>
                        <path d="M37,31.5857864 L37,21.5 C37,20.9477153 36.5522847,20.5 36,20.5 C35.4477153,20.5 35,20.9477153 35,21.5 L35,89.5857864 L24.8053525,79.391139 C24.4148282,79.0006147 23.7816633,79.0006147 23.391139,79.391139 C23.0006147,79.7816633 23.0006147,80.4148282 23.391139,80.8053525 L34.7928932,92.2071068 C34.8562356,92.2704492 34.9259615,92.3235175 35,92.3663119 L35,179.503165 C35,180.055449 35.4477153,180.503165 36,180.503165 C36.5522847,180.503165 37,180.055449 37,179.503165 L37,157.366312 C37.0740385,157.323518 37.1437644,157.270449 37.2071068,157.207107 L53.3316223,141.082591 C53.7221466,140.692067 53.7221466,140.058902 53.3316223,139.668378 C52.941098,139.277853 52.307933,139.277853 51.9174087,139.668378 L37,154.585786 L37,34.3663119 C37.0740385,34.3235175 37.1437644,34.2704492 37.2071068,34.2071068 L50.936637,20.4775766 C51.3271613,20.0870523 51.3271613,19.4538873 50.936637,19.063363 C50.5461127,18.6728387 49.9129477,18.6728387 49.5224234,19.063363 L37,31.5857864 Z" id="Combined-Shape" fill="#EAEDF9" fill-rule="nonzero"></path>
                        <path d="M9,171 C19.328776,172.333333 28.6621094,173 37,173 C45.3378906,173 54.671224,172.333333 65,171 L62,211 L12,211 L9,171 Z" id="Rectangle-29" fill="#EAEDF9"></path>
                    </g>
                </g>
            </g>
        </g>
    </g>
</svg>